<?xml version="1.0" standalone="no"?>
<!DOCTYPE svg PUBLIC "-//W3C//DTD SVG 20010904//EN"
 "http://www.w3.org/TR/2001/REC-SVG-20010904/DTD/svg10.dtd">
<svg version="1.0" xmlns="http://www.w3.org/2000/svg"
 width="128.000000pt" height="128.000000pt" viewBox="0 0 128.000000 128.000000"
 preserveAspectRatio="xMidYMid meet">

<g transform="translate(0.000000,128.000000) scale(0.100000,-0.100000)"
fill="#000000" stroke="none">
<path d="M0 640 l0 -640 640 0 640 0 0 640 0 640 -640 0 -640 0 0 -640z m539
216 c168 -167 184 -187 183 -217 -1 -29 -22 -55 -184 -216 -198 -197 -209
-204 -262 -162 -20 15 -26 29 -26 57 0 34 11 48 142 179 l143 143 -143 143
c-131 131 -142 145 -142 179 0 28 6 42 26 57 53 42 64 35 263 -163z m324 57
c161 -159 187 -197 187 -273 0 -76 -27 -115 -188 -273 -111 -108 -135 -127
-161 -127 -43 0 -81 39 -81 81 0 28 18 50 135 169 74 75 135 142 135 150 0 8
-61 75 -135 150 -117 119 -135 141 -135 169 0 43 38 81 81 81 28 0 50 -18 162
-127z"/>
</g>
</svg>
