<?xml version="1.0" standalone="no"?>
<!DOCTYPE svg PUBLIC "-//W3C//DTD SVG 20010904//EN"
 "http://www.w3.org/TR/2001/REC-SVG-20010904/DTD/svg10.dtd">
<svg version="1.0" xmlns="http://www.w3.org/2000/svg"
 width="128.000000pt" height="128.000000pt" viewBox="0 0 128.000000 128.000000"
 preserveAspectRatio="xMidYMid meet">

<g transform="translate(0.000000,128.000000) scale(0.100000,-0.100000)"
fill="#000000" stroke="none">
<path d="M0 640 l0 -640 640 0 640 0 0 640 0 640 -640 0 -640 0 0 -640z m595
394 c25 -10 48 -62 40 -93 -4 -15 -65 -85 -143 -163 l-136 -138 136 -138 c78
-78 139 -148 143 -163 14 -58 -40 -110 -98 -95 -12 3 -88 72 -168 153 -128
130 -147 154 -157 196 -10 36 -10 58 -1 95 11 42 29 64 163 200 154 155 170
165 221 146z m390 -19 c16 -15 25 -35 25 -56 0 -28 -18 -51 -142 -176 l-142
-143 142 -143 c124 -125 142 -148 142 -176 0 -37 -38 -81 -70 -81 -12 0 -33 6
-48 14 -44 23 -350 338 -357 367 -4 17 -1 38 9 55 16 32 319 335 351 353 33
17 64 13 90 -14z"/>
</g>
</svg>
